<svg xmlns="http://www.w3.org/2000/svg" xmlns:xlink="http://www.w3.org/1999/xlink" width="150px" height="27px" viewBox="0 0 150 27"><title>Interplex Logo/White</title><g id="Interplex-Logo/White" stroke="none" stroke-width="1" fill="none" fill-rule="evenodd"><path d="M11.9998685,5.5067062e-14 C18.626954,5.5067062e-14 24,5.28643288 24,11.8081345 C24,18.2224976 18.8005645,23.4430698 12.3228364,23.6108274 L12.0182716,23.6149756 L12.0182716,27 C10.6056151,26.9948261 9.23658077,26.8056913 7.9360955,26.4543983 L7.45167545,26.3151049 L7.45167545,17.5893216 C8.62610501,18.4860637 10.0795463,19.0440264 11.6630703,19.114532 L11.9814655,19.1220897 L12.0031548,19.1227364 C16.1090164,19.1227364 19.4373473,15.8476574 19.4373473,11.8081345 C19.4373473,7.89343202 16.312765,4.69725496 12.3837045,4.50258695 L12.1925259,4.49531115 L12.1925259,4.49531115 L11.9998685,4.49288589 L11.9814655,4.49288589 C10.381259,4.49834273 8.90120661,5.00116856 7.69023739,5.85161978 L7.45167545,6.02630066 L7.45167545,0.878269618 C8.85491133,0.312374245 10.3902551,5.5067062e-14 11.9998685,5.5067062e-14 Z M101.875105,6.57566365 C102.983668,6.57566365 104.017042,6.78843063 104.975227,7.21461129 C105.932768,7.64079195 106.754712,8.22929636 107.440415,8.9801245 C108.126118,9.73095265 108.66594,10.6040086 109.058596,11.597999 C109.451895,12.5926362 109.648545,13.6480638 109.648545,14.7636354 C109.648545,15.9005483 109.451895,16.9708502 109.058596,17.975188 C108.66594,18.9801724 108.126118,19.8577553 107.440415,20.6085835 C106.754712,21.3594116 105.932768,21.947916 104.975227,22.3740967 C104.017042,22.8002774 102.983668,23.0136911 101.875105,23.0136911 C100.744691,23.0136911 99.7215994,22.7491874 98.8045443,22.2221203 C97.8862038,21.6944065 97.1452335,21.0451115 96.5809908,20.2735887 L96.5809908,27 L94.009766,27 L94.009766,6.97080233 L96.4903777,6.97080233 L96.4903777,9.46709573 C97.0346985,8.67552497 97.78081,7.99583472 98.7287121,7.42802498 C99.6766142,6.85956853 100.725412,6.57566365 101.875105,6.57566365 Z M72.5639138,6.5753403 C73.5722246,6.5753403 74.5496885,6.77840665 75.4982333,7.18389266 C76.4454928,7.59002537 77.2873584,8.17852977 78.0238302,8.94940587 C78.7596593,9.72092867 79.3444667,10.6541285 79.7782524,11.7502988 C80.2113955,12.8458224 80.4286097,14.0939691 80.4286097,15.4940922 L67.3302087,15.4940922 C67.411182,16.3057109 67.6181139,17.0313174 67.9510043,17.6702651 C68.283252,18.3098594 68.6964731,18.8530943 69.1906675,19.2986762 C69.6848619,19.7461982 70.2343238,20.0863667 70.8396959,20.3191816 C71.4444253,20.5526432 72.0690768,20.6690507 72.7149355,20.6690507 C73.823499,20.6690507 74.7669027,20.4155411 75.5432185,19.9078752 C76.3195342,19.400856 76.9197652,18.6907705 77.3432686,17.7776186 L80.065515,17.7776186 C79.5211942,19.4616466 78.6137788,20.7557096 77.3432686,21.6578674 C76.0727584,22.5619654 74.5297665,23.0133677 72.7149355,23.0133677 C71.5851647,23.0133677 70.5370098,22.799954 69.5691857,22.3737734 C68.6013615,21.9475927 67.7588533,21.3694356 67.0429461,20.6386554 C66.327039,19.9078752 65.7621536,19.0458133 65.3495752,18.0511762 C64.9357115,17.0571858 64.7287796,15.9810634 64.7287796,14.8247493 C64.7287796,13.6884831 64.9357115,12.6175344 65.3495752,11.6131967 C65.7621536,10.6088589 66.3225405,9.73644967 67.0281653,8.99532214 C67.7337901,8.25484133 68.5608749,7.66633693 69.508777,7.22980893 C70.4560365,6.79392765 71.4752723,6.5753403 72.5639138,6.5753403 Z M126.738674,6.5753403 C127.746985,6.5753403 128.724449,6.77840665 129.672994,7.18389266 C130.620253,7.59002537 131.462761,8.17852977 132.198591,8.94940587 C132.93442,9.72092867 133.519227,10.6541285 133.953013,11.7502988 C134.386799,12.8458224 134.60337,14.0939691 134.60337,15.4940922 L121.505612,15.4940922 C121.585942,16.3057109 121.793517,17.0313174 122.125765,17.6702651 C122.458655,18.3098594 122.871876,18.8530943 123.36607,19.2986762 C123.859622,19.7461982 124.409727,20.0863667 125.015099,20.3191816 C125.619828,20.5526432 126.24448,20.6690507 126.890339,20.6690507 C127.998902,20.6690507 128.941663,20.4155411 129.717979,19.9078752 C130.494295,19.400856 131.094526,18.6907705 131.518029,17.7776186 L134.240918,17.7776186 C133.695955,19.4616466 132.788539,20.7557096 131.518029,21.6578674 C130.247519,22.5619654 128.705169,23.0133677 126.890339,23.0133677 C125.760568,23.0133677 124.71177,22.799954 123.743946,22.3737734 C122.776122,21.9475927 121.933614,21.3694356 121.218349,20.6386554 C120.502442,19.9078752 119.937557,19.0458133 119.524336,18.0511762 C119.111114,17.0571858 118.904183,15.9810634 118.904183,14.8247493 C118.904183,13.6884831 119.111114,12.6175344 119.524336,11.6131967 C119.937557,10.6088589 120.497301,9.73644967 121.203568,8.99532214 C121.90855,8.25484133 122.735635,7.66633693 123.683537,7.22980893 C124.63144,6.79392765 125.650033,6.5753403 126.738674,6.5753403 Z M59.3755424,3.62227694 L59.3755424,6.97093167 L62.9145913,6.97093167 L62.9145913,9.43682979 L59.3755424,9.43682979 L59.3755424,16.9250633 C59.3755424,17.6151009 59.470654,18.1835573 59.662805,18.6297859 C59.8543133,19.0760146 60.1165127,19.4265304 60.4494031,19.68004 C60.7822935,19.9335495 61.1646676,20.1062206 61.5984533,20.1974065 C62.032239,20.2885923 62.4910879,20.3144606 62.975,20.2730713 L62.975,22.6477836 C62.0675845,22.7493168 61.2360012,22.6982268 60.4796074,22.4958072 C59.7232137,22.2927408 59.0779976,21.9428717 58.5433165,21.4455532 C58.0092781,20.9482346 57.5909158,20.3189876 57.2882298,19.5578121 C56.9855437,18.7972833 56.834522,17.9197004 56.834522,16.9250633 L56.834522,9.43682979 L54.7170051,9.43682979 L54.7170051,6.97093167 L56.834522,6.97093167 L56.834522,3.62227694 L59.3755424,3.62227694 Z M34.5712247,1.52235095 L34.5712247,22.6477189 L32,22.6477189 L32,1.52235095 L34.5712247,1.52235095 Z M46.3682043,6.57514629 C47.3161064,6.57514629 48.1631132,6.73811674 48.9092247,7.06211751 C49.6546935,7.38741171 50.2857714,7.84334094 50.7998878,8.43184535 C51.3140042,9.02099646 51.7021621,9.72138137 51.9643615,10.5323534 C52.2265609,11.3446188 52.3576606,12.237076 52.3576606,13.2110185 L52.3576606,22.6477836 L49.8166402,22.6477836 L49.8166402,13.1198326 C49.8166402,11.9020812 49.4940321,10.9029171 48.848816,10.1216937 C48.2035999,9.34111698 47.2556978,8.94921185 46.0057522,8.94921185 C45.4203022,8.94921185 44.8759814,9.0559187 44.3721473,9.26933238 C43.8676706,9.48209936 43.4338848,9.7718246 43.0714328,10.136568 C42.7083381,10.5019581 42.425574,10.9333124 42.224426,11.430631 C42.0226353,11.9279495 41.9217399,12.4705377 41.9217399,13.0590421 L41.9217399,22.6477836 L39.3505152,22.6477836 L39.3505152,6.97093167 L41.8311269,6.97093167 L41.8311269,8.67565431 C42.354883,8.02635934 43.0058829,7.5141665 43.7821987,7.13842907 C44.5585145,6.76333836 45.4203022,6.57514629 46.3682043,6.57514629 Z M91.1365622,6.60554157 L91.1365622,9.16262554 C90.4707814,9.12188293 89.8358476,9.1833202 89.2311182,9.34499723 C88.6257461,9.50796768 88.0962062,9.7718246 87.6431411,10.136568 C87.1894334,10.5019581 86.825696,10.9688814 86.553857,11.5373378 C86.2813753,12.1051476 86.1451344,12.7854845 86.1451344,13.5764086 L86.1451344,22.6477836 L83.5739097,22.6477836 L83.5739097,6.97093167 L86.0545214,6.97093167 L86.0545214,8.73644488 C86.3572074,8.31026422 86.7048787,7.95004778 87.0981777,7.65579558 C87.4914768,7.36154338 87.9149802,7.12808174 88.3686879,6.95605738 C88.8223957,6.78338631 89.2863857,6.66697884 89.7600155,6.60554157 C90.2336452,6.54475101 90.6931368,6.54475101 91.1365622,6.60554157 Z M115.577335,1.77635684e-15 L115.577335,22.6477189 L113.006111,22.6477189 L113.006111,1.77635684e-15 L115.577335,1.77635684e-15 Z M139.231189,6.97099634 L142.861494,12.5721355 L146.491155,6.97099634 L149.637548,6.97099634 L144.403843,14.5504157 L150,22.6478483 L146.85425,22.6478483 L142.861494,16.5293426 L138.868737,22.6478483 L135.722987,22.6478483 L141.288297,14.5504157 L136.086082,6.97099634 L139.231189,6.97099634 Z M4.56659619,2.53230095 L4.56659619,21.0690931 C1.78510007,18.9070494 0,15.5595358 0,11.800697 C0,8.04185829 1.78510007,4.69434464 4.56659619,2.53230095 Z M101.875105,8.94908251 C101.148915,8.94908251 100.467711,9.10170563 99.8327771,9.40630516 C99.1978433,9.7109047 98.6380991,10.126738 98.154187,10.6538052 C97.6696323,11.1821657 97.2866155,11.8010654 97.0044942,12.5111509 C96.7217301,13.2212365 96.5809908,13.9720646 96.5809908,14.7636354 C96.5809908,15.5759008 96.7217301,16.3364295 97.0044942,17.0465151 C97.2866155,17.7572473 97.6696323,18.3813207 98.154187,18.9187351 C98.6380991,19.4567963 99.1978433,19.8778033 99.8327771,20.1817561 C100.467711,20.4863557 101.148915,20.6389788 101.875105,20.6389788 C102.600651,20.6389788 103.281213,20.4863557 103.916147,20.1817561 C104.551723,19.8778033 105.101185,19.4567963 105.565175,18.9187351 C106.029165,18.3813207 106.396758,17.7572473 106.66924,17.0465151 C106.941722,16.3364295 107.077963,15.5759008 107.077963,14.7636354 C107.077963,13.9720646 106.941722,13.2212365 106.66924,12.5111509 C106.396758,11.8010654 106.029165,11.1821657 105.565175,10.6538052 C105.101185,10.126738 104.551723,9.7109047 103.916147,9.40630516 C103.281213,9.10170563 102.600651,8.94908251 101.875105,8.94908251 Z M12.3612922,6.48884737 C12.3836388,6.48884737 12.4030643,6.49977005 12.4147001,6.51663313 L12.425703,6.54576028 L12.5808148,7.40850819 L12.784399,7.43906654 L12.784399,7.43906654 L12.9850256,7.47835585 L13.4293288,6.72167289 C13.4389686,6.70183961 13.4576638,6.68861742 13.4785985,6.68526396 L13.5108282,6.68804254 L14.1838557,6.92927565 C14.2044496,6.93660535 14.2192013,6.95370796 14.2244106,6.97330172 L14.2246054,7.00365047 L14.0708081,7.86639839 L14.2513063,7.96373239 L14.2513063,7.96373239 L14.4263821,8.06882725 L15.1072966,7.50745904 C15.1226325,7.49193734 15.144687,7.48590112 15.1654757,7.48992527 L15.1947113,7.50357861 L15.7428606,7.95694165 C15.7599492,7.97073872 15.7679823,7.99143432 15.7659862,8.01174667 L15.7553484,8.04101753 L15.3117024,8.79834723 L15.447836,8.95008803 L15.447836,8.95008803 L15.5765755,9.10813452 L16.4099727,8.81063524 C16.4301285,8.80114976 16.4529133,8.80287439 16.4709269,8.81370126 L16.4934439,8.83650474 L16.851647,9.44702501 C16.8626012,9.46599598 16.8627472,9.48784133 16.8538378,9.5060458 L16.8339011,9.52980742 L16.1562729,10.0905289 L16.2316928,10.2796996 L16.2316928,10.2796996 L16.2982397,10.4727508 L17.1809309,10.4733975 C17.2032775,10.4716729 17.2241636,10.4811584 17.2373573,10.497255 L17.2505997,10.5257833 L17.3754779,11.2203794 C17.3789832,11.2419373 17.3713883,11.2626329 17.3567827,11.2767174 L17.3301274,11.2921673 L16.4993592,11.59096 C16.5026454,11.660161 16.5046172,11.7300086 16.5046172,11.800503 L16.5032205,11.8999389 L16.5032205,11.8999389 L16.4993592,11.9984047 L17.3281556,12.295904 C17.3491877,12.3015091 17.365546,12.3171745 17.3725568,12.3367682 L17.3754779,12.3683386 L17.2505997,13.062288 C17.2466562,13.0838459 17.2324888,13.1010923 17.2137449,13.1096196 L17.1829026,13.1153205 L16.3028404,13.1159672 L16.2359649,13.3108778 L16.2359649,13.3108778 L16.1602165,13.5014228 L16.8325866,14.0576171 C16.8509897,14.0701207 16.8609215,14.0906726 16.8604347,14.1116077 L16.851647,14.1423398 L16.4934439,14.7522133 C16.4824897,14.7711842 16.4630642,14.7823944 16.4425676,14.7839274 L16.4119445,14.7787295 L15.5844625,14.4831705 L15.4538334,14.6438039 L15.4538334,14.6438039 L15.3163032,14.7981316 L15.7546911,15.5470538 C15.767398,15.5647312 15.7695889,15.5872952 15.7620426,15.6066973 L15.7435178,15.6324231 L15.1947113,16.0851394 C15.1776227,16.0989365 15.1555682,16.1029606 15.1357532,16.0975951 L15.1086111,16.0825525 L14.4349264,15.5270049 L14.2565643,15.6342825 L14.2565643,15.6342825 L14.0727799,15.7333142 L14.2239481,16.5824806 C14.2296443,16.6036074 14.2239481,16.6255964 14.2101701,16.6413577 L14.1838557,16.6594424 L13.5108282,16.9000287 C13.4897961,16.9077896 13.4675956,16.9040529 13.4508478,16.8922679 L13.4306433,16.8689853 L12.9909409,16.1213567 L12.7866172,16.1615353 L12.7866172,16.1615353 L12.578843,16.1924978 L12.425703,17.0416643 C12.4239503,17.0632222 12.4108052,17.0819057 12.3923048,17.0919661 L12.3612922,17.0998707 L11.6455433,17.0998707 C11.6231967,17.0998707 11.6034791,17.088948 11.5918432,17.0722765 L11.5811324,17.0436045 L11.4273352,16.1924978 L11.2194788,16.1615353 L11.2194788,16.1615353 L11.0145801,16.1213567 L10.5768493,16.8676919 C10.5672096,16.887094 10.5485144,16.9001725 10.5275797,16.9032864 L10.4953499,16.9000287 L9.82232251,16.6594424 C9.80172858,16.6516815 9.787269,16.6347226 9.78205966,16.615081 L9.78157281,16.5844208 L9.93339833,15.7333142 L9.74961386,15.6342825 L9.74961386,15.6342825 L9.57125174,15.5270049 L8.89953883,16.081259 C8.88376475,16.0967807 8.86156419,16.1028169 8.84072682,16.0987928 L8.81146688,16.0851394 L8.2633176,15.6324231 C8.24622901,15.6181949 8.23848803,15.5973556 8.24048413,15.5771869 L8.25082978,15.5483472 L8.68987501,14.7981316 L8.55242691,14.6438039 L8.55242691,14.6438039 L8.4223729,14.4831705 L7.59620546,14.7780828 C7.57648786,14.7875683 7.55355702,14.7858436 7.53539735,14.7750168 L7.51273428,14.7522133 L7.15518847,14.1423398 C7.14379608,14.1233688 7.14350396,14.1009485 7.15236471,14.0825525 L7.17227705,14.0589106 L7.84596173,13.5014228 L7.77045975,13.3108778 L7.77045975,13.3108778 L7.70333775,13.1159672 L6.82524729,13.1153205 C6.80290068,13.1170451 6.78201463,13.1078471 6.76882088,13.0917505 L6.75557844,13.0629348 L6.6307003,12.3683386 C6.62719495,12.3472118 6.63478988,12.3263725 6.64959025,12.3121443 L6.67670804,12.2965507 L7.506819,11.9984047 C7.50418999,11.9330842 7.50221823,11.867117 7.50221823,11.800503 L7.50336842,11.6951656 L7.50336842,11.6951656 L7.50747626,11.5903133 L6.67802254,11.292814 C6.65699044,11.287209 6.64063213,11.2712561 6.63362143,11.2516624 L6.6307003,11.2203794 L6.75557844,10.5257833 C6.75952196,10.5042254 6.77398153,10.4872665 6.79272542,10.4789307 L6.82327553,10.4733975 L7.70793852,10.4727508 L7.77448543,10.2796996 L7.77448543,10.2796996 L7.84990525,10.0905289 L7.17359156,9.53110089 C7.15562664,9.5185973 7.14584086,9.49804542 7.14618166,9.47730191 L7.15453121,9.44702501 L7.51273428,8.83650474 C7.52368851,8.81753377 7.54311399,8.80632366 7.56361056,8.80479065 L7.5942337,8.8099885 L8.42960269,9.10813452 L8.55834219,8.95008803 L8.55834219,8.95008803 L8.69447579,8.79834723 L8.25148704,8.04231101 C8.23878014,8.02420236 8.23658929,8.00178212 8.24433028,7.98252371 L8.2633176,7.95694165 L8.81146688,7.50357861 C8.82855547,7.48978155 8.85090208,7.4857574 8.87071705,7.49112293 L8.89756707,7.50616556 L9.58045329,8.06882725 L9.75520052,7.96373239 L9.75520052,7.96373239 L9.93537009,7.86639839 L9.78223006,7.00623742 C9.77653386,6.98511066 9.78223006,6.96312159 9.79600804,6.94736035 L9.82232251,6.92927565 L10.4953499,6.68804254 C10.516382,6.68071285 10.5385826,6.68459327 10.5553304,6.69642618 L10.5755348,6.71973268 L11.0211526,7.47835585 L11.2217792,7.43906654 L11.2217792,7.43906654 L11.4253634,7.40850819 L11.5804752,6.54705375 C11.5822279,6.52549583 11.5953729,6.5068123 11.6138734,6.49675194 L11.644886,6.48884737 L12.3612922,6.48884737 Z M12.0030891,8.4691578 C10.1338606,8.4691578 8.6182344,9.96118137 8.6182344,11.800503 C8.6182344,13.6404714 10.1338606,15.1318482 12.0030891,15.1318482 C13.8729748,15.1318482 15.388601,13.6404714 15.388601,11.800503 C15.388601,9.96118137 13.8729748,8.4691578 12.0030891,8.4691578 Z M12.0032205,10.0868425 C12.9647822,10.0868425 13.7449419,10.85452 13.7449419,11.800697 C13.7449419,12.7468741 12.9647822,13.5145516 12.0032205,13.5145516 C11.0410017,13.5145516 10.2614992,12.7468741 10.2614992,11.800697 C10.2614992,10.85452 11.0410017,10.0868425 12.0032205,10.0868425 Z M126.738674,8.91901058 C126.194353,8.91901058 125.654531,9.0153701 125.120493,9.20873583 C124.585812,9.40145485 124.09226,9.68018606 123.63791,10.0455762 C123.184844,10.4103195 122.78062,10.8578416 122.428451,11.3849087 C122.074996,11.9126225 121.817937,12.5108276 121.656633,13.1808172 L131.760306,13.1808172 C131.59836,12.5522169 131.351584,11.9734131 131.019336,11.4456993 C130.686446,10.9186321 130.297645,10.4672299 129.85422,10.0908457 C129.410794,9.71575501 128.921741,9.42667647 128.387703,9.22361012 C127.853022,9.02119047 127.302917,8.91901058 126.738674,8.91901058 Z M72.5639138,8.91901058 C72.0189504,8.91901058 71.4791282,9.0153701 70.9450898,9.20873583 C70.4110513,9.40145485 69.9168569,9.68018606 69.4631492,10.0455762 C69.0094414,10.4103195 68.6058601,10.8578416 68.2530477,11.3849087 C67.9002353,11.9126225 67.6431771,12.5108276 67.481873,13.1808172 L77.5855459,13.1808172 C77.4235993,12.5522169 77.1768234,11.9734131 76.843933,11.4456993 C76.5110426,10.9186321 76.1228847,10.4672299 75.6794593,10.0908457 C75.2353913,9.71575501 74.746338,9.42667647 74.2122996,9.22361012 C73.6776185,9.02119047 73.1281566,8.91901058 72.5639138,8.91901058 Z" id="Combined-Shape" fill="#FFFFFF"></path></g></svg>